# xmcd
#
# Track frame offsets:
#	150
#	14728
#	24630
#	38148
#	60016
#	78847
#	95230
#	112786
#	128406
#	144481
#	161107
#	177940
#	196432
#	210876
#	226586
#	241639
#	255202
#	272257
#	290401
#	306978
#
# Disc length: 4170 seconds
#
# Revision: 0
# Processed by: cddbd v1.5.2PL0 Copyright (c) Steve Scherf et al.
# Submitted via: EasyCDDAExtractor 9.1.3.1
#
DISCID=f5104814
DTITLE=Various Artist - VA-Kuduro Style
DYEAR=2008
DGENRE=Kuduro
TTITLE0=Les Princes Du kuduro - Hleder
TTITLE1=Costuleta - Afrosom
TTITLE2=MN - Nao Passa Nada
TTITLE3=Costuleta - Afrosom
TTITLE4=DJ I.V.M. - Aumenta O Nivel
TTITLE5=Fofando - Pra Dar Mais Toyo
TTITLE6=DJ Puto X - Inspiracoa Total
TTITLE7=Bodany King - Mole Mole
TTITLE8=DJ Vielo - Batida Nervoso
TTITLE9=Fofodji - Toi Fais Gaffe
TTITLE10=Shabba Tigre - Kuduro Badja
TTITLE11=DJ Nilcaps - A Danca
TTITLE12=DJ Puto X - De l'Angola au Brésil
TTITLE13=Fofodji - To Pausado
TTITLE14=DJ Nilcaps - Novo Destino (Ft. DJ Master Xuxu)
TTITLE15=DJ Vielo - Street Kuduro Version 2008
TTITLE16=Shabba Tigre - Badja Pa Mi
TTITLE17=Puto Prata - Ali Baba (Ft. Noite e Dia)
TTITLE18=Noite E Dia - Tira Makossa
TTITLE19=Helder - Evip
EXTD=
EXTT0=
EXTT1=
EXTT2=
EXTT3=
EXTT4=
EXTT5=
EXTT6=
EXTT7=
EXTT8=
EXTT9=
EXTT10=
EXTT11=
EXTT12=
EXTT13=
EXTT14=
EXTT15=
EXTT16=
EXTT17=
EXTT18=
EXTT19=
PLAYORDER=
